<svg width="250" height="250" viewBox="0 0 250 250" fill="none" xmlns="http://www.w3.org/2000/svg">
<rect width="250" height="250" rx="125" fill="#E9E5DA"/>
<path d="M134.462 177H220V175.185C196.29 175.003 186.441 171.191 179.511 156.849L136.651 59H85.0363V60.8154C108.199 60.8154 118.23 64.6277 125.161 78.2431C63.6974 97.1231 87.5896 175.185 44 175.185V177C110.023 177 133.368 118.363 129.355 87.6831L159.449 156.668C164.738 171.191 158.354 175.185 134.462 175.185V177ZM72.999 170.828C107.287 151.948 91.0549 96.0339 125.525 80.0585C134.097 101.662 120.601 155.034 72.999 170.828Z" fill="#2020E1"/>
<path d="M134.462 177H220V175.185C196.29 175.003 186.441 171.191 179.511 156.849L136.651 59H85.0363V60.8154C108.199 60.8154 118.23 64.6277 125.161 78.2431C63.6974 97.1231 87.5896 175.185 44 175.185V177C110.023 177 133.368 118.363 129.355 87.6831L159.449 156.668C164.738 171.191 158.354 175.185 134.462 175.185V177ZM72.999 170.828C107.287 151.948 91.0549 96.0339 125.525 80.0585C134.097 101.662 120.601 155.034 72.999 170.828Z" fill="url(#paint0_linear_79_303)" fill-opacity="0.6"/>
<defs>
<linearGradient id="paint0_linear_79_303" x1="515.019" y1="5.4915" x2="514.413" y2="178.815" gradientUnits="userSpaceOnUse">
<stop offset="0.395833" stop-color="#0000E6"/>
<stop offset="0.979167" stop-color="#E9E5DA"/>
</linearGradient>
</defs>
</svg>
