<?xml version="1.0" standalone="no"?>
<!DOCTYPE svg PUBLIC "-//W3C//DTD SVG 20010904//EN"
 "http://www.w3.org/TR/2001/REC-SVG-20010904/DTD/svg10.dtd">
<svg version="1.0" xmlns="http://www.w3.org/2000/svg"
 width="700.000000pt" height="700.000000pt" viewBox="0 0 700.000000 700.000000"
 preserveAspectRatio="xMidYMid meet">
<metadata>
Created by potrace 1.14, written by Peter Selinger 2001-2017
</metadata>
<g transform="translate(0.000000,700.000000) scale(0.100000,-0.100000)"
fill="#000000" stroke="none">
<path d="M2380 5322 l0 -29 183 -6 c493 -16 740 -132 911 -428 l26 -46 -90
-33 c-288 -102 -559 -292 -741 -518 -207 -257 -325 -507 -528 -1121 -144 -433
-205 -580 -301 -721 -132 -194 -311 -302 -527 -317 l-83 -6 0 -30 0 -29 128 7
c614 33 1096 223 1505 592 309 279 559 686 682 1109 64 220 103 510 91 679 -6
82 -5 87 8 60 86 -188 815 -1868 833 -1920 13 -38 26 -105 30 -147 5 -70 3
-82 -21 -132 -59 -121 -210 -171 -561 -185 l-160 -6 -3 -28 -3 -27 1200 0
1201 0 0 28 0 29 -167 6 c-285 11 -473 50 -628 130 -105 54 -222 170 -285 282
-25 44 -316 699 -647 1455 l-602 1375 -725 3 -726 2 0 -28z m1153 -629 c34
-122 41 -191 41 -363 -1 -201 -23 -354 -80 -555 -197 -683 -664 -1228 -1278
-1489 -60 -26 -110 -45 -112 -43 -2 2 21 21 51 42 84 57 209 188 276 288 135
201 208 399 340 911 106 411 160 579 234 734 95 197 190 321 327 425 65 49
162 107 179 107 4 0 13 -26 22 -57z"/>
</g>
</svg>
